<?xml version="1.0" standalone="no"?>
<!DOCTYPE svg PUBLIC "-//W3C//DTD SVG 20010904//EN"
 "http://www.w3.org/TR/2001/REC-SVG-20010904/DTD/svg10.dtd">
<svg version="1.0" xmlns="http://www.w3.org/2000/svg"
 width="32.000000pt" height="32.000000pt" viewBox="0 0 32.000000 32.000000"
 preserveAspectRatio="xMidYMid meet">

<g transform="translate(0.000000,32.000000) scale(0.100000,-0.100000)"
fill="#000000" stroke="none">
<path d="M242 258 l-62 -63 0 38 c0 20 -4 37 -10 37 -5 0 -10 -25 -10 -55 l0
-55 -55 0 c-30 0 -55 -4 -55 -10 0 -5 17 -10 37 -10 l37 0 -64 -65 c-35 -35
-61 -68 -57 -72 4 -4 37 22 72 57 l65 64 0 -37 c0 -20 5 -37 10 -37 6 0 10 25
10 55 l0 55 55 0 c30 0 55 5 55 10 0 6 -17 10 -37 10 l-37 0 62 63 c34 34 62
66 62 70 0 17 -19 3 -78 -55z"/>
</g>
</svg>
