<svg class="svg-icon" style="width: 1.0029296875em; height: 1em;vertical-align: middle;fill: #413f4a;overflow: hidden;" viewBox="0 0 1027 1024" version="1.1" xmlns="http://www.w3.org/2000/svg"><path d="M842.24 657.92c-61.44 0-117.76 30.72-151.04 79.36l-337.92-148.48c10.24-23.04 15.36-48.64 15.36-74.24 0-33.28-7.68-64-23.04-92.16l335.36-153.6c30.72 58.88 92.16 97.28 161.28 97.28 102.4 0 184.32-81.92 184.32-184.32S944.64 0 842.24 0s-184.32 81.92-184.32 184.32c0 12.8 2.56 25.6 2.56 35.84l-348.16 158.72c-33.28-30.72-76.8-51.2-128-51.2-102.4 0-184.32 81.92-184.32 184.32s81.92 184.32 184.32 184.32c56.32 0 107.52-25.6 140.8-66.56L668.16 780.8c-5.12 17.92-10.24 38.4-10.24 58.88 0 102.4 81.92 184.32 184.32 184.32 102.4 0 184.32-81.92 184.32-184.32C1026.56 739.84 944.64 657.92 842.24 657.92zM842.24 51.2C916.48 51.2 975.36 110.08 975.36 184.32s-58.88 133.12-133.12 133.12-133.12-58.88-133.12-133.12S770.56 51.2 842.24 51.2zM186.88 645.12C112.64 645.12 53.76 586.24 53.76 512s58.88-133.12 133.12-133.12 133.12 58.88 133.12 133.12S258.56 645.12 186.88 645.12zM842.24 972.8c-74.24 0-133.12-58.88-133.12-133.12 0-74.24 58.88-133.12 133.12-133.12 74.24 0 133.12 58.88 133.12 133.12C975.36 913.92 916.48 972.8 842.24 972.8z"  /></svg>
